<?xml version="1.0" encoding="UTF-8"?>
<svg width="544px" height="305px" viewBox="0 0 544 305" version="1.1" xmlns="http://www.w3.org/2000/svg" xmlns:xlink="http://www.w3.org/1999/xlink">
    <title>Artboard</title>
    <g id="Artboard" stroke="none" stroke-width="1" fill="none" fill-rule="evenodd">
        <path d="M116.75,195.75 L152.59469,104.50897 C153.200523,102.966851 154.941782,102.20784 156.483902,102.813673 C157.226264,103.105315 157.821931,103.680571 158.13927,104.412317 L197.75,195.75 L197.75,195.75" id="Path-Copy" stroke="#CE3333" stroke-width="20" stroke-linecap="round"></path>
        <path d="M116.75,195.75 C163.414565,143.412295 198.914565,128.995628 223.25,152.5 C257.904616,195.75 229.535281,225.393872 219.630857,234.083477 C206.667236,245.457056 176,259.25 150.5,257 C125,254.75 102.75,246.75 85.25,225.5 C67.75,204.25 60,165.25 65.75,138.25 C71.5,111.25 82.5,83.5 116.75,63.25 C117.299419,62.9251612 117.86353,62.6428335 118.420092,62.3497249 C166.341465,37.1123069 213.117677,63.3906387 223.25,75.5" id="Path-2-Copy" stroke="#CE3333" stroke-width="16" stroke-linecap="round"></path>
        <g id="LAB-Copy" transform="translate(285.500000, 132.100000)" fill="#DA1E20" fill-rule="nonzero">
            <path d="M7.7,70.9 C5.56666667,70.9 3.75,70.1333333 2.25,68.6 C0.75,67.0666667 0,65.2333333 0,63.1 L0,10.6 C0,7 1.2,4.33333333 3.6,2.6 C6,0.866666667 9.7,0 14.7,0 L14.7,58.2 L40.5,58.2 C43.8333333,58.2 46.3833333,59.2833333 48.15,61.45 C49.9166667,63.6166667 50.8,66.7666667 50.8,70.9 L7.7,70.9 Z" id="Path"></path>
            <path d="M67.8333333,71.8 C64.6333333,71.5333333 62.1333333,70.5 60.3333333,68.7 C58.5333333,66.9 57.6333333,64.6333333 57.6333333,61.9 C57.6333333,59.7666667 58.1666667,57.5333333 59.2333333,55.2 L81.8333333,4.9 C82.5666667,3.23333333 83.5166667,2 84.6833333,1.2 C85.85,0.4 87.3,0 89.0333333,0 C90.7666667,0 92.2166667,0.4 93.3833333,1.2 C94.55,2 95.5,3.23333333 96.2333333,4.9 L118.833333,55.2 C119.9,57.5333333 120.433333,59.7333333 120.433333,61.8 C120.433333,64.6 119.533333,66.9 117.733333,68.7 C115.933333,70.5 113.4,71.5333333 110.133333,71.8 L101.733333,53.5 L76.2333333,53.5 L67.8333333,71.8 Z M97.2333333,40.9 L86.9333333,15.3 L85.5333333,15.9 L88.2333333,22.6 L80.6333333,40.9 L97.2333333,40.9 Z" id="Shape"></path>
            <path d="M140.166667,70.9 C138.166667,70.9 136.433333,70.25 134.966667,68.95 C133.5,67.65 132.766667,66.0666667 132.766667,64.2 L132.766667,7.6 C132.766667,5.73333333 133.483333,4.15 134.916667,2.85 C136.35,1.55 138.1,0.9 140.166667,0.9 L166.666667,0.9 C173.333333,0.9 178.65,2.7 182.616667,6.3 C186.583333,9.9 188.566667,14.7333333 188.566667,20.8 C188.566667,23.5333333 187.816667,26.15 186.316667,28.65 C184.816667,31.15 182.833333,33.1333333 180.366667,34.6 L180.366667,35 C183.766667,36.2 186.466667,38.1666667 188.466667,40.9 C190.466667,43.6333333 191.466667,46.6666667 191.466667,50 C191.466667,54.0666667 190.5,57.6833333 188.566667,60.85 C186.633333,64.0166667 183.933333,66.4833333 180.466667,68.25 C177,70.0166667 173.033333,70.9 168.566667,70.9 L140.166667,70.9 Z M166.466667,29.8 C168.533333,29.8 170.283333,28.9833333 171.716667,27.35 C173.15,25.7166667 173.866667,23.7333333 173.866667,21.4 C173.866667,18.8666667 173.2,16.8833333 171.866667,15.45 C170.533333,14.0166667 168.733333,13.3 166.466667,13.3 L147.066667,13.3 L147.066667,29.8 L166.466667,29.8 Z M168.466667,58.5 C171,58.5 173.016667,57.75 174.516667,56.25 C176.016667,54.75 176.766667,52.7333333 176.766667,50.2 C176.766667,47.6 176.033333,45.5833333 174.566667,44.15 C173.1,42.7166667 171.066667,42 168.466667,42 L147.066667,42 L147.066667,58.5 L168.466667,58.5 Z" id="Shape"></path>
        </g>
    </g>
</svg>